<svg width="48" height="43" viewBox="0 0 48 43" fill="none" xmlns="http://www.w3.org/2000/svg">
<path d="M1.80902 20.1358H6.37561V43H1.80902V20.1358Z" fill="#0B1B34"/>
<path d="M14.6955 15.314L14.6955 20.381L1.80897 24.6479L1.80897 19.9249L14.6955 15.314Z" fill="#0B1B34"/>
<path d="M25.9869 0.993604L25.9869 6.06065L36.9655 9.6889L36.9655 4.90336L25.9869 0.993604Z" fill="#0B1B34"/>
<path d="M25.9921 0.997766L25.9921 6.06481L18.4489 9.18493L18.4489 4.46194L25.9921 0.997766Z" fill="#0B1B34"/>
<path d="M43.4088 20.1045L47.9754 21.8248V42.9687H43.4088V20.1045Z" fill="#0B1B34"/>
<path d="M32.3989 5.8417H36.9655V20.7613H32.3989V5.8417Z" fill="#0B1B34"/>
<path d="M10.129 19.1662H14.6956V43H10.129V19.1662Z" fill="#0B1B34"/>
<path d="M18.4489 5.8417H23.0155V42.9687H18.4489V5.8417Z" fill="#0B1B34"/>
<path d="M26.7689 14.2709L26.7689 19.338L39.6554 23.9569L39.6554 19.234L26.7689 14.2709Z" fill="#FFA04F"/>
<path d="M28.5204 36.7757V32.2091H37.247V36.7757L28.5204 36.7757Z" fill="#FFA04F"/>
<rect x="35.0888" y="21.3869" width="4.56659" height="21.5818" fill="#FFA04F"/>
<rect x="26.7688" y="17.008" width="4.56659" height="25.9608" fill="#FFA04F"/>
</svg>
